<?xml version="1.0" encoding="utf-8"?>
<!-- Generator: Adobe Illustrator 18.1.1, SVG Export Plug-In . SVG Version: 6.00 Build 0)  -->
<!DOCTYPE svg PUBLIC "-//W3C//DTD SVG 1.1//EN" "http://www.w3.org/Graphics/SVG/1.1/DTD/svg11.dtd">
<svg version="1.1" id="Capa_1" xmlns="http://www.w3.org/2000/svg" xmlns:xlink="http://www.w3.org/1999/xlink" x="0px" y="0px"
	 viewBox="0 0 514 512" enable-background="new 0 0 514 512" xml:space="preserve">
<g>
	<g id="_x31_5_38_">
		<g>
			<path fill="#FFFFFF" d="M133.8,134.8h6.9c10.4,0,19-8.6,19-19V63.4V43.9c0-10.4-8.5-19-19-19h-6.9c-10.4,0-19,8.5-19,19v19.6
				v52.4C114.9,126.3,123.4,134.8,133.8,134.8z"/>
			<path fill="#FFFFFF" d="M377.4,134.3h6.9c10.4,0,19-8.5,19-19V58.5V43.4c0-10.4-8.5-19-19-19h-6.9c-10.4,0-19,8.5-19,19v15.1
				v56.9C358.4,125.9,366.8,134.3,377.4,134.3z"/>
			<path fill="#FFFFFF" d="M467.4,63.4h-48.7v56.9c0,19-15.4,29.4-34.4,29.4h-6.9c-19,0-34.4-15.4-34.4-34.4V63.4H175.2v52.4
				c0,19-15.4,34.4-34.4,34.4h-6.9c-19,0-34.4-15.4-34.4-34.4V63.4H46.8c-17,0-30.8,13.8-30.8,30.8v372.9c0,17,13.8,30.8,30.8,30.8
				h420.5c17,0,30.8-13.8,30.8-30.8V94.3C498.3,77.3,484.4,63.4,467.4,63.4z M467.4,467.3H46.8V185.7h420.5V467.3L467.4,467.3z"/>
			<path fill="#FFFFFF" d="M273.1,280.1h55.4c2.2,0,4-1.8,4-4v-48c0-2.2-1.8-4-4-4h-55.4c-2.2,0-4,1.8-4,4v48
				C269.1,278.3,270.9,280.1,273.1,280.1z"/>
			<path fill="#FFFFFF" d="M363.4,280.1h55.5c2.2,0,4-1.8,4-4v-48c0-2.2-1.8-4-4-4h-55.4c-2.2,0-4,1.8-4,4v48
				C359.5,278.3,361.3,280.1,363.4,280.1z"/>
			<path fill="#FFFFFF" d="M92.2,358.7h55.4c2.2,0,4-1.8,4-4v-48c0-2.2-1.8-4-4-4H92.2c-2.2,0-4,1.8-4,4v48
				C88.2,356.9,90,358.7,92.2,358.7z"/>
			<path fill="#FFFFFF" d="M182.7,358.7h55.4c2.2,0,4-1.8,4-4v-48c0-2.2-1.8-4-4-4h-55.4c-2.2,0-4,1.8-4,4v48
				C178.7,356.9,180.4,358.7,182.7,358.7z"/>
			<path fill="#FFFFFF" d="M273.1,358.7h55.4c2.2,0,4-1.8,4-4v-48c0-2.2-1.8-4-4-4h-55.4c-2.2,0-4,1.8-4,4v48
				C269.1,356.9,270.9,358.7,273.1,358.7z"/>
			<path fill="#FFFFFF" d="M363.4,358.7h55.5c2.2,0,4-1.8,4-4v-48c0-2.2-1.8-4-4-4h-55.4c-2.2,0-4,1.8-4,4v48
				C359.5,356.9,361.3,358.7,363.4,358.7z"/>
			<path fill="#FFFFFF" d="M147.6,381.2H92.2c-2.2,0-4,1.8-4,4v48c0,2.2,1.8,4,4,4h55.4c2.2,0,4-1.8,4-4v-48
				C151.5,383,149.8,381.2,147.6,381.2z"/>
			<path fill="#FFFFFF" d="M238.1,381.2h-55.4c-2.2,0-4,1.8-4,4v48c0,2.2,1.8,4,4,4h55.4c2.2,0,4-1.8,4-4v-48
				C242,383,240.2,381.2,238.1,381.2z"/>
			<path fill="#FFFFFF" d="M328.4,381.2h-55.4c-2.2,0-4,1.8-4,4v48c0,2.2,1.8,4,4,4h55.4c2.2,0,4-1.8,4-4v-48
				C332.4,383,330.6,381.2,328.4,381.2z"/>
			<path fill="#FFFFFF" d="M418.9,381.2h-55.4c-2.2,0-4,1.8-4,4v48c0,2.2,1.8,4,4,4h55.4c2.2,0,4-1.8,4-4v-48
				C422.9,383,421.1,381.2,418.9,381.2z"/>
		</g>
	</g>
</g>
</svg>
