<?xml version="1.0" encoding="utf-8"?>
<!-- Generator: Adobe Illustrator 18.1.1, SVG Export Plug-In . SVG Version: 6.00 Build 0)  -->
<!DOCTYPE svg PUBLIC "-//W3C//DTD SVG 1.1//EN" "http://www.w3.org/Graphics/SVG/1.1/DTD/svg11.dtd">
<svg version="1.1" id="Capa_1" xmlns="http://www.w3.org/2000/svg" xmlns:xlink="http://www.w3.org/1999/xlink" x="0px" y="0px"
	 viewBox="231.1 0 817.8 800" enable-background="new 231.1 0 817.8 800" xml:space="preserve">
<g opacity="0.5">
	<g>
		<path fill="#FFFFFF" d="M348.4,425.3c0.9-0.6,1.4-1.7,1.4-2.8v-44.7c0-1.1-0.5-2.2-1.4-2.8s-2-0.9-3.1-0.6L262,396.9
			c-3.1,0.8-3.1,5.9,0,6.7l83.1,22.5C346.4,426.2,347.7,426.1,348.4,425.3z"/>
		<path fill="#FFFFFF" d="M1016.7,396.9l-83.1-22.5c-1.1-0.3-2.2,0-3.1,0.6s-1.4,1.7-1.4,2.8v44.8c0,1.1,0.5,2.2,1.4,2.8
			c0.9,0.6,2,0.9,3.1,0.6l83.1-22.5C1019.8,402.8,1019.8,397.7,1016.7,396.9z"/>
		<path fill="#FFFFFF" d="M660.6,683.9h-44.7c-1.1,0-2.2,0.5-2.8,1.4s-0.9,2-0.6,3l22.5,83.3c0.8,3.1,5.9,3.1,6.9,0l22.5-83.3
			c0.3-1.1,0-2.2-0.6-3.1C662.8,684.4,661.7,683.9,660.6,683.9z"/>
		<path fill="#FFFFFF" d="M615.8,116.7h44.8c1.1,0,2-0.5,2.8-1.4c0.6-0.9,0.9-2,0.6-3.1l-22.5-83.1c-0.8-3.1-5.9-3.1-6.9,0
			l-22.5,83.1c-0.3,1.1,0,2.2,0.6,3C613.6,116.2,614.7,116.7,615.8,116.7z"/>
		<path fill="#FFFFFF" d="M394.5,612.3c-0.8-0.8-1.9-1.1-3-0.9s-2,0.8-2.7,1.7l-43,74.7c-1.6,2.7,2,6.4,4.8,4.8l74.7-43
			c0.9-0.6,1.6-1.6,1.7-2.5c0.2-1.1-0.3-2.2-1.1-3L394.5,612.3z"/>
		<path fill="#FFFFFF" d="M881.9,188.3c0.8,0.8,1.9,1.1,3,0.9c1.1-0.2,2-0.8,2.7-1.7l43-74.7c1.6-2.8-2-6.4-4.8-4.8l-74.7,43
			c-0.9,0.5-1.6,1.6-1.7,2.7c-0.2,1.1,0.3,2.2,0.9,3L881.9,188.3z"/>
		<path fill="#FFFFFF" d="M870.2,613c-0.6-0.9-1.6-1.6-2.5-1.7c-1.1-0.2-2.2,0.2-3,0.9L833,643.8c-0.8,0.8-1.1,1.9-0.9,3
			s0.8,2,1.7,2.5l74.7,43c2.8,1.6,6.4-2,4.8-4.8L870.2,613z"/>
		<path fill="#FFFFFF" d="M372,187.8c0.5,0.9,1.4,1.4,2.3,1.6c1.1,0.2,2-0.3,2.8-1.1l31.7-31.7c0.8-0.8,1.1-1.9,1.1-2.8
			c0-1.1-0.6-1.9-1.6-2.3l-68.9-37.3c-2.5-1.4-6.2,2.2-4.8,4.8L372,187.8z"/>
	</g>
</g>
</svg>
