<?xml version="1.0" encoding="utf-8"?>
<!-- Generator: Adobe Illustrator 18.1.1, SVG Export Plug-In . SVG Version: 6.00 Build 0)  -->
<!DOCTYPE svg PUBLIC "-//W3C//DTD SVG 1.1//EN" "http://www.w3.org/Graphics/SVG/1.1/DTD/svg11.dtd">
<svg version="1.1" id="Capa_1" xmlns="http://www.w3.org/2000/svg" xmlns:xlink="http://www.w3.org/1999/xlink" x="0px" y="0px"
	 viewBox="0 0 514 512" enable-background="new 0 0 514 512" xml:space="preserve">
<g>
	<path id="Facebook_Places" fill="#FFFFFF" d="M421,132.6c-1.7-6.5-5.3-13.6-7.9-19.7c-31.5-75.8-100.6-103-156.2-103
		c-74.5,0-156.6,50-167.5,153v21.1c0,0.9,0.3,8.7,0.7,12.7c6.2,49.1,44.8,101.2,73.8,150.3c31.1,52.6,63.4,104.3,95.4,156
		c19.7-33.7,39.4-68,58.7-100.8c5.3-9.6,11.4-19.3,16.6-28.5c3.6-6.1,10.2-12.3,13.3-18c31.1-57,81.2-114.4,81.2-171v-23.3
		C429,155.4,421.5,133.9,421,132.6z M258.2,238.3c-21.9,0-45.9-11-57.7-41.2c-1.7-4.8-1.6-14.4-1.6-15.4v-13.6
		c0-38.5,32.8-56.1,61.2-56.1c35.1,0,62.1,28.1,62.1,63.2C322.3,210.2,293.3,238.3,258.2,238.3z"/>
</g>
</svg>
