<?xml version="1.0" encoding="utf-8"?>
<!-- Generator: Adobe Illustrator 18.1.1, SVG Export Plug-In . SVG Version: 6.00 Build 0)  -->
<!DOCTYPE svg PUBLIC "-//W3C//DTD SVG 1.1//EN" "http://www.w3.org/Graphics/SVG/1.1/DTD/svg11.dtd">
<svg version="1.1" id="Capa_1" xmlns="http://www.w3.org/2000/svg" xmlns:xlink="http://www.w3.org/1999/xlink" x="0px" y="0px"
	 viewBox="0 0 514 512" enable-background="new 0 0 514 512" xml:space="preserve">
<g id="Dibujo">
	<g>
		<path fill="#FFFFFF" d="M402.2,286.2c6.6-13.9,10.3-29.4,10.3-45.6c0-56.6-46.3-102.9-102.9-102.9c-33.8,0-65.4,16.9-84.5,44.1
			c-1.5,0-2.2,0-3.7,0c-56.6,0-104.3,36.8-119.7,89.7c-4.4-0.7-8.8-1.5-12.5-1.5c-44.8,0-80.9,36-80.9,80.9s36,80.9,80.9,80.9h264.5
			c44.8,0,80.9-36,80.9-80.9C434.5,324.4,421.3,300.8,402.2,286.2z M309.6,167.1c40.4,0,73.5,33.1,73.5,73.5c0,11-2.9,22-7.3,32.4
			c-6.6-2.2-13.9-2.9-22-2.9c-3.7,0-8.1,0.7-12.5,1.5c-11.7-40.4-43.4-71.2-82.3-83.8C272.1,174.4,290.5,167.1,309.6,167.1z
			 M353.7,402.2H89.1c-28.7,0-51.4-22.8-51.4-51.4c0-28.7,22.8-51.4,51.4-51.4c2.2,0,5.1,0.7,8.8,1.5v13.2c0,8.1,6.6,14.7,14.7,14.7
			s14.7-6.6,14.7-14.7v-23.5c8.1-46.3,47-79.4,94.1-79.4c47,0,86,33.1,94.1,79.4v23.5c0,8.1,6.6,14.7,14.7,14.7
			c8.1,0,14.7-6.6,14.7-14.7v-13.2c3.7-0.7,6.6-1.5,8.8-1.5c28.7,0,51.4,22.8,51.4,51.4C405.3,379.5,382.3,402.2,353.7,402.2z"/>
		<path fill="#FFFFFF" d="M309.6,108.3c8.1,0,14.7-6.6,14.7-14.7V64.2c0-8.1-6.6-14.7-14.7-14.7c-8.1,0-14.7,6.6-14.7,14.7v29.4
			C294.9,101.7,301.5,108.3,309.6,108.3z"/>
		<path fill="#FFFFFF" d="M485.9,225.9h-29.4c-8.1,0-14.7,6.6-14.7,14.7c0,8.1,6.6,14.7,14.7,14.7h29.4c8.1,0,14.7-6.6,14.7-14.7
			C500.7,232.5,494.1,225.9,485.9,225.9z"/>
		<path fill="#FFFFFF" d="M413.2,151.7c3.7,0,7.3-1.5,10.3-4.4l20.5-20.5c5.9-5.9,5.9-14.7,0-20.5s-14.7-5.9-20.5,0L403,126.7
			c-5.9,5.9-5.9,14.7,0,20.5C405.9,150.2,409.5,151.7,413.2,151.7z"/>
		<path fill="#FFFFFF" d="M195,147.3c2.9,2.9,6.6,4.4,10.3,4.4c3.7,0,7.3-1.5,10.3-4.4c5.9-5.9,5.9-14.7,0-20.5L195,106.1
			c-5.9-5.9-14.7-5.9-20.5,0c-5.8,5.9-5.9,14.7,0,20.5L195,147.3z"/>
	</g>
</g>
</svg>
