<?xml version="1.0" encoding="utf-8"?>
<!-- Generator: Adobe Illustrator 18.1.1, SVG Export Plug-In . SVG Version: 6.00 Build 0)  -->
<!DOCTYPE svg PUBLIC "-//W3C//DTD SVG 1.1//EN" "http://www.w3.org/Graphics/SVG/1.1/DTD/svg11.dtd">
<svg version="1.1" id="Capa_1" xmlns="http://www.w3.org/2000/svg" xmlns:xlink="http://www.w3.org/1999/xlink" x="0px" y="0px"
	 viewBox="0 0 514 512" enable-background="new 0 0 514 512" xml:space="preserve">
<g id="Dibujo">
	<path fill="#FFFFFF" d="M254,427.7c-9.2,0-16.7,7.5-16.7,16.7v33.3c0,9.2,7.5,16.7,16.7,16.7s16.7-7.5,16.7-16.7v-33.3
		C270.7,435.2,263.2,427.7,254,427.7z M179,377.7c-9.2,0-16.7,7.5-16.7,16.7v33.3c0,9.2,7.5,16.7,16.7,16.7s16.7-7.5,16.7-16.7
		v-33.3C195.7,385.2,188.2,377.7,179,377.7z M329,377.7c-9.2,0-16.7,7.5-16.7,16.7v33.3c0,9.2,7.5,16.7,16.7,16.7
		s16.7-7.5,16.7-16.7v-33.3C345.7,385.2,338.2,377.7,329,377.7z M404,111c-4.2,0-9.2,0.8-14.2,1.7C372.3,52.7,318.1,11,254,11
		S135.7,52.7,118.2,112.7c-5-0.8-10-1.7-14.2-1.7c-50.8,0-91.7,40.8-91.7,91.7s40.8,91.7,91.7,91.7h58.3v33.3
		c0,9.2,7.5,16.7,16.7,16.7s16.7-7.5,16.7-16.7v-33.3h116.7v33.3c0,9.2,7.5,16.7,16.7,16.7s16.7-7.5,16.7-16.7v-33.3H404
		c50.8,0,91.7-40.8,91.7-91.7S454.8,111,404,111z M404,261H104c-32.5,0-58.3-25.8-58.3-58.3s25.8-58.3,58.3-58.3
		c2.5,0,5.8,0.8,10,1.7v15c0,9.2,7.5,16.7,16.7,16.7s16.7-7.5,16.7-16.7v-26.7c9.2-52.5,53.3-90,106.7-90c53.3,0,97.5,37.5,106.7,90
		v26.7c0,9.2,7.5,16.7,16.7,16.7s16.7-7.5,16.7-16.7v-15c4.2-0.8,7.5-1.7,10-1.7c32.5,0,58.3,25.8,58.3,58.3S436.5,261,404,261z
		 M254,327.7c-9.2,0-16.7,7.5-16.7,16.7v33.3c0,9.2,7.5,16.7,16.7,16.7s16.7-7.5,16.7-16.7v-33.3C270.7,335.2,263.2,327.7,254,327.7
		z"/>
</g>
</svg>
