<?xml version="1.0" encoding="utf-8"?>
<!-- Generator: Adobe Illustrator 18.1.1, SVG Export Plug-In . SVG Version: 6.00 Build 0)  -->
<!DOCTYPE svg PUBLIC "-//W3C//DTD SVG 1.1//EN" "http://www.w3.org/Graphics/SVG/1.1/DTD/svg11.dtd">
<svg version="1.1" id="Capa_1" xmlns="http://www.w3.org/2000/svg" xmlns:xlink="http://www.w3.org/1999/xlink" x="0px" y="0px"
	 viewBox="0 0 514 512" enable-background="new 0 0 514 512" xml:space="preserve">
<g id="Dibujo">
	<path fill="#FFFFFF" d="M227.2,445.8c-7.1,0-12.9,5.8-12.9,12.9v25.8c0,7.1,5.8,12.9,12.9,12.9s12.9-5.8,12.9-12.9v-25.8
		C240.1,451.6,234.3,445.8,227.2,445.8z M203.9,92.9c2.6,2.6,5.8,3.9,9.1,3.9c3.3,0,6.4-1.3,9.1-3.9c5.2-5.2,5.2-12.9,0-18
		l-18.1-18.1c-5.2-5.2-12.9-5.2-18,0s-5.2,12.9,0,18L203.9,92.9z M304.6,58.6c7.1,0,12.9-5.8,12.9-12.9V19.9
		c0-7.1-5.8-12.9-12.9-12.9s-12.9,5.8-12.9,12.9v25.8C291.7,52.8,297.5,58.6,304.6,58.6z M395.6,96.7c3.3,0,6.4-1.3,9.1-3.9l18-18
		c5.2-5.2,5.2-12.9,0-18c-5.2-5.1-12.9-5.2-18,0l-18,18c-5.2,5.2-5.2,12.9,0,18C389.1,95.4,392.3,96.7,395.6,96.7z M169.1,407.1
		c-7.1,0-12.9,5.8-12.9,12.9v25.8c0,7.1,5.8,12.9,12.9,12.9s12.9-5.8,12.9-12.9V420C182,412.9,176.2,407.1,169.1,407.1z
		 M459.5,161.9h-25.8c-7.1,0-12.9,5.8-12.9,12.9s5.8,12.9,12.9,12.9h25.8c7.1,0,12.9-5.8,12.9-12.9S466.6,161.9,459.5,161.9z
		 M227.2,368.4c-7.1,0-12.9,5.8-12.9,12.9v25.8c0,7.1,5.8,12.9,12.9,12.9s12.9-5.8,12.9-12.9v-25.8
		C240.1,374.2,234.3,368.4,227.2,368.4z M385.9,214.8c5.8-12.2,9.1-25.8,9.1-40c0-49.7-40.7-90.4-90.4-90.4
		c-29.7,0-57.5,14.9-74.2,38.7c-1.3,0-1.9,0-3.3,0c-49.7,0-91.6,32.3-105.2,78.7c-3.9-0.6-7.7-1.3-11-1.3c-39.3,0-71,31.6-71,71
		s31.6,71,71,71h45.1v25.8c0,7.1,5.8,12.9,12.9,12.9s12.9-5.8,12.9-12.9v-25.8h90.4v25.8c0,7.1,5.8,12.9,12.9,12.9
		s12.9-5.8,12.9-12.9v-25.8h45.1c39.3,0,71-31.6,71-71C414.3,248.4,402.7,227.7,385.9,214.8z M304.6,110.3c35.5,0,64.5,29,64.5,64.5
		c0,9.7-2.6,19.4-6.4,28.4c-5.8-1.9-12.2-2.6-19.4-2.6c-3.3,0-7.1,0.6-11,1.3c-10.3-35.5-38.1-62.6-72.2-73.6
		C271.7,116.7,287.8,110.3,304.6,110.3z M343.3,316.7H111c-25.2,0-45.1-20-45.1-45.1c0-25.2,20-45.1,45.1-45.1
		c1.9,0,4.5,0.6,7.7,1.3v11.6c0,7.1,5.8,12.9,12.9,12.9s12.9-5.8,12.9-12.9v-20.7c7.1-40.7,41.3-69.7,82.6-69.7
		c41.3,0,75.5,29,82.6,69.7v20.7c0,7.1,5.8,12.9,12.9,12.9s12.9-5.8,12.9-12.9v-11.6c3.3-0.6,5.8-1.3,7.7-1.3
		c25.2,0,45.1,20,45.1,45.1C388.6,296.8,368.5,316.7,343.3,316.7z M285.2,407.1c-7.1,0-12.9,5.8-12.9,12.9v25.8
		c0,7.1,5.8,12.9,12.9,12.9s12.9-5.8,12.9-12.9V420C298.2,412.9,292.4,407.1,285.2,407.1z"/>
</g>
</svg>
