<?xml version="1.0" encoding="utf-8"?>
<!-- Generator: Adobe Illustrator 18.1.1, SVG Export Plug-In . SVG Version: 6.00 Build 0)  -->
<!DOCTYPE svg PUBLIC "-//W3C//DTD SVG 1.1//EN" "http://www.w3.org/Graphics/SVG/1.1/DTD/svg11.dtd">
<svg version="1.1" id="Capa_1" xmlns="http://www.w3.org/2000/svg" xmlns:xlink="http://www.w3.org/1999/xlink" x="0px" y="0px"
	 viewBox="0 0 514 512" enable-background="new 0 0 514 512" xml:space="preserve">
<g id="Dibujo">
	<g>
		<path fill="#FFFFFF" d="M406,144.3c-4.2,0-9.2,0.8-14.2,1.7C374.3,86,320.1,44.3,256,44.3S137.7,86,120.2,146
			c-5-0.8-10-1.7-14.2-1.7c-50.8,0-91.7,40.8-91.7,91.7s40.8,91.7,91.7,91.7c9.2,0,16.7-7.5,16.7-16.7s-7.5-16.7-16.7-16.7
			c-32.5,0-58.3-25.8-58.3-58.3s25.8-58.3,58.3-58.3c2.5,0,5.8,0.8,10,1.7v15c0,9.2,7.5,16.7,16.7,16.7s16.7-7.5,16.7-16.7v-26.7
			c9.2-52.5,53.3-90,106.7-90s97.5,37.5,106.7,90v26.7c0,9.2,7.5,16.7,16.7,16.7s16.7-7.5,16.7-16.7v-15c4.2-0.8,7.5-1.7,10-1.7
			c32.5,0,58.3,25.8,58.3,58.3s-25.8,58.3-58.3,58.3c-9.2,0-16.7,7.5-16.7,16.7s7.5,16.7,16.7,16.7c50.8,0,91.7-40.8,91.7-91.7
			S456.8,144.3,406,144.3z"/>
		<path fill="#FFFFFF" d="M236.8,331.8c-5-8.3-15-10.8-22.5-5.8c-8.3,5-10.8,15-5.8,22.5l8.3,14.2c3.3,5,8.3,8.3,14.2,8.3
			c2.5,0,5.8-0.8,8.3-2.5c8.3-5,10.8-15,5.8-22.5L236.8,331.8z"/>
		<path fill="#FFFFFF" d="M195.2,259.3c-5-8.3-15-10.8-22.5-5.8c-8.3,5-10.8,15-5.8,22.5l8.3,14.2c3.3,5,8.3,8.3,14.2,8.3
			c2.5,0,5.8-0.8,8.3-2.5c8.3-5,10.8-15,5.8-22.5L195.2,259.3z"/>
		<path fill="#FFFFFF" d="M214.3,296.8c2.5,1.7,5.8,2.5,8.3,2.5c5.8,0,11.7-3.3,14.2-8.3l8.3-14.2c5-8.3,1.7-18.3-5.8-22.5
			c-8.3-5-18.3-1.7-22.5,5.8l-8.3,14.2C203.5,281.8,206,291.8,214.3,296.8z"/>
		<path fill="#FFFFFF" d="M197.7,325.2c-8.3-5-18.3-1.7-22.5,5.8l-8.3,14.2c-5,8.3-1.7,18.3,5.8,22.5c2.5,1.7,5.8,2.5,8.3,2.5
			c5.8,0,11.7-3.3,14.2-8.3l8.3-14.2C208.5,340.2,206,330.2,197.7,325.2z"/>
		<path fill="#FFFFFF" d="M189.3,311c0-9.2-7.5-16.7-16.7-16.7H156c-9.2,0-16.7,7.5-16.7,16.7s7.5,16.7,16.7,16.7h16.7
			C181.8,327.7,189.3,320.2,189.3,311z"/>
		<path fill="#FFFFFF" d="M272.7,311c0-9.2-7.5-16.7-16.7-16.7h-16.7c-9.2,0-16.7,7.5-16.7,16.7s7.5,16.7,16.7,16.7H256
			C265.2,327.7,272.7,320.2,272.7,311z"/>
		<path fill="#FFFFFF" d="M361.8,405.2c-5-8.3-15-10.8-22.5-5.8c-8.3,5-10.8,15-5.8,22.5l8.3,14.2c3.3,5,8.3,8.3,14.2,8.3
			c2.5,0,5.8-0.8,8.3-2.5c8.3-5,10.8-15,5.8-22.5L361.8,405.2z"/>
		<path fill="#FFFFFF" d="M320.2,332.7c-5-8.3-15-10.8-22.5-5.8c-8.3,5-10.8,15-5.8,22.5l8.3,14.2c3.3,5,8.3,8.3,14.2,8.3
			c2.5,0,5.8-0.8,8.3-2.5c8.3-5,10.8-15,5.8-22.5L320.2,332.7z"/>
		<path fill="#FFFFFF" d="M339.3,370.2c2.5,1.7,5.8,2.5,8.3,2.5c5.8,0,11.7-3.3,14.2-8.3l8.3-14.2c5-8.3,1.7-18.3-5.8-22.5
			c-8.3-5-18.3-1.7-22.5,5.8l-8.3,14.2C328.5,355.2,331,365.2,339.3,370.2z"/>
		<path fill="#FFFFFF" d="M322.7,398.5c-8.3-5-18.3-1.7-22.5,5.8l-8.3,14.2c-5,8.3-1.7,18.3,5.8,22.5c2.5,1.7,5.8,2.5,8.3,2.5
			c5.8,0,11.7-3.3,14.2-8.3l8.3-14.2C333.5,413.5,331,403.5,322.7,398.5z"/>
		<path fill="#FFFFFF" d="M314.3,384.3c0-9.2-7.5-16.7-16.7-16.7H281c-9.2,0-16.7,7.5-16.7,16.7S271.8,401,281,401h16.7
			C306.8,401,314.3,393.5,314.3,384.3z"/>
		<path fill="#FFFFFF" d="M381,367.7h-16.7c-9.2,0-16.7,7.5-16.7,16.7s7.5,16.7,16.7,16.7H381c9.2,0,16.7-7.5,16.7-16.7
			S390.2,367.7,381,367.7z"/>
	</g>
</g>
</svg>
