<?xml version="1.0" encoding="utf-8"?>
<!-- Generator: Adobe Illustrator 18.1.1, SVG Export Plug-In . SVG Version: 6.00 Build 0)  -->
<!DOCTYPE svg PUBLIC "-//W3C//DTD SVG 1.1//EN" "http://www.w3.org/Graphics/SVG/1.1/DTD/svg11.dtd">
<svg version="1.1" id="Capa_1" xmlns="http://www.w3.org/2000/svg" xmlns:xlink="http://www.w3.org/1999/xlink" x="0px" y="0px"
	 viewBox="0 0 514 512" enable-background="new 0 0 514 512" xml:space="preserve">
<g id="yUyDKj.tif">
	<g>
		<path fill="#FFFFFF" d="M167.1,368.2c0.2-0.9,0.3-1.8,0.6-2.6c28.4-73,56.9-145.9,85.4-219c0.3-0.7,0.6-1.4,1-2.5
			c0.5,1.1,0.9,1.9,1.3,2.7c29.8,72,59.6,144,89.4,216c0.4,0.9,0.9,1.7,1.4,2.5c0,0.2,0,0.3,0,0.5c-0.9-0.3-1.8-0.4-2.6-0.8
			c-28.4-12.4-56.9-24.6-85.4-37c-1.5-0.7-2.8-0.7-4.3,0.1c-19.9,9.1-39.7,18.3-59.6,27.4C185.1,359.8,176.1,364,167.1,368.2z"/>
		<path fill="#FFFFFF" d="M167.1,368.2c9-4.2,18.1-8.4,27.2-12.7c19.9-9.1,39.8-18.2,59.6-27.4c1.5-0.7,2.8-0.7,4.3-0.1
			c28.4,12.4,56.8,24.7,85.4,37c0.8,0.4,1.7,0.5,2.6,0.8c0,0.8,0,1.5,0,2.3C286.5,368.2,226.8,368.2,167.1,368.2L167.1,368.2z"/>
	</g>
</g>
</svg>
