<?xml version="1.0" encoding="utf-8"?>
<!-- Generator: Adobe Illustrator 18.1.1, SVG Export Plug-In . SVG Version: 6.00 Build 0)  -->
<!DOCTYPE svg PUBLIC "-//W3C//DTD SVG 1.1//EN" "http://www.w3.org/Graphics/SVG/1.1/DTD/svg11.dtd">
<svg version="1.1" id="Capa_1" xmlns="http://www.w3.org/2000/svg" xmlns:xlink="http://www.w3.org/1999/xlink" x="0px" y="0px"
	 viewBox="0 0 514 512" enable-background="new 0 0 514 512" xml:space="preserve">
<g id="Dibujo">
	<g>
		<path fill="#FFFFFF" d="M404,186.3c-4.2,0-9.2,0.8-14.2,1.7C372.3,128,318.1,86.3,254,86.3S135.7,128,118.2,188
			c-5-0.8-10-1.7-14.2-1.7c-50.8,0-91.7,40.8-91.7,91.7s40.8,91.7,91.7,91.7h300c50.8,0,91.7-40.8,91.7-91.7S454.8,186.3,404,186.3z
			 M404,336.3H104c-32.5,0-58.3-25.8-58.3-58.3s25.8-58.3,58.3-58.3c2.5,0,5.8,0.8,10,1.7v15c0,9.2,7.5,16.7,16.7,16.7
			s16.7-7.5,16.7-16.7v-26.7c9.2-51.7,53.3-90,106.7-90c53.3,0,97.5,37.5,106.7,90v26.7c0,9.2,7.5,16.7,16.7,16.7
			s16.7-7.5,16.7-16.7v-15c4.2-0.8,7.5-1.7,10-1.7c32.5,0,58.3,25.8,58.3,58.3S436.5,336.3,404,336.3z"/>
	</g>
</g>
</svg>
