<?xml version="1.0" encoding="utf-8"?>
<!-- Generator: Adobe Illustrator 18.1.1, SVG Export Plug-In . SVG Version: 6.00 Build 0)  -->
<!DOCTYPE svg PUBLIC "-//W3C//DTD SVG 1.1//EN" "http://www.w3.org/Graphics/SVG/1.1/DTD/svg11.dtd">
<svg version="1.1" id="Capa_1" xmlns="http://www.w3.org/2000/svg" xmlns:xlink="http://www.w3.org/1999/xlink" x="0px" y="0px"
	 viewBox="0 0 514 512" enable-background="new 0 0 514 512" xml:space="preserve">
<g id="Dibujo">
	<path fill="#FFFFFF" d="M382.5,158.2c4.2,0,8.3-1.7,11.7-5l23.3-23.3c6.7-6.7,6.7-16.7,0-23.3s-16.7-6.7-23.3,0l-23.3,23.3
		c-6.7,6.7-6.7,16.7,0,23.3C374.2,156.5,378.3,158.2,382.5,158.2z M115,259c0-9.2-7.5-16.7-16.7-16.7H65c-9.2,0-16.7,7.5-16.7,16.7
		s7.5,16.7,16.7,16.7h33.3C107.5,275.7,115,268.2,115,259z M135,364.8l-23.3,23.3c-6.7,6.7-6.7,16.7,0,23.3c3.3,3.3,7.5,5,11.7,5
		s8.3-1.7,11.7-5l23.3-23.3c6.7-6.7,6.7-16.7,0-23.3C152.5,358.2,141.7,358.2,135,364.8z M135,153.2c3.3,3.3,7.5,5,11.7,5
		s8.3-1.7,11.7-5c6.7-6.7,6.7-16.7,0-23.3L135,106.5c-6.7-6.7-16.7-6.7-23.3,0s-6.7,16.7,0,23.3L135,153.2z M265,109
		c9.2,0,16.7-7.5,16.7-16.7V59c0-9.2-7.5-16.7-16.7-16.7c-9.2,0-16.7,7.5-16.7,16.7v33.3C248.3,101.5,255.8,109,265,109z M465,242.3
		h-33.3c-9.2,0-16.7,7.5-16.7,16.7s7.5,16.7,16.7,16.7H465c9.2,0,16.7-7.5,16.7-16.7S474.2,242.3,465,242.3z M395,364.8
		c-6.7-6.7-16.7-6.7-23.3,0s-6.7,16.7,0,23.3l23.3,23.3c3.3,3.3,7.5,5,11.7,5s8.3-1.7,11.7-5c6.7-6.7,6.7-16.7,0-23.3L395,364.8z
		 M265,409c-9.2,0-16.7,7.5-16.7,16.7V459c0,9.2,7.5,16.7,16.7,16.7c9.2,0,16.7-7.5,16.7-16.7v-33.3C281.7,416.5,274.2,409,265,409z
		 M265,142.3c-64.2,0-116.7,52.5-116.7,116.7S200.8,375.7,265,375.7S381.7,323.2,381.7,259S329.2,142.3,265,142.3z M265,342.3
		c-45.8,0-83.3-37.5-83.3-83.3s37.5-83.3,83.3-83.3s83.3,37.5,83.3,83.3S310.8,342.3,265,342.3z"/>
</g>
</svg>
