<?xml version="1.0" encoding="utf-8"?>
<!-- Generator: Adobe Illustrator 18.1.1, SVG Export Plug-In . SVG Version: 6.00 Build 0)  -->
<!DOCTYPE svg PUBLIC "-//W3C//DTD SVG 1.1//EN" "http://www.w3.org/Graphics/SVG/1.1/DTD/svg11.dtd">
<svg version="1.1" id="Capa_1" xmlns="http://www.w3.org/2000/svg" xmlns:xlink="http://www.w3.org/1999/xlink" x="0px" y="0px"
	 viewBox="0 0 514 512" enable-background="new 0 0 514 512" xml:space="preserve">
<g id="Dibujo">
	<g>
		<path fill="#FFFFFF" d="M272.7,342.7v-95c0-9.2-7.5-16.7-16.7-16.7s-16.7,7.5-16.7,16.7v95c-15,6.7-25,20.8-25,38.3
			c0,23.3,18.3,41.7,41.7,41.7c23.3,0,41.7-18.3,41.7-41.7C297.7,364.3,287.7,349.3,272.7,342.7z M256,389.3c-5,0-8.3-3.3-8.3-8.3
			s3.3-8.3,8.3-8.3s8.3,3.3,8.3,8.3S261,389.3,256,389.3z"/>
		<path fill="#FFFFFF" d="M322.7,318.5V106c0-36.7-30-66.7-66.7-66.7s-66.7,30-66.7,66.7v212.5c-15.8,16.7-25,39.2-25,62.5
			c0,50.8,40.8,91.7,91.7,91.7s91.7-40.8,91.7-91.7C347.7,357.7,338.5,335.2,322.7,318.5z M256,439.3c-32.5,0-58.3-25.8-58.3-58.3
			c0-16.7,6.7-32.5,19.2-43.3c3.3-3.3,5.8-7.5,5.8-12.5V106c0-18.3,15-33.3,33.3-33.3s33.3,15,33.3,33.3v219.2c0,5,1.7,9.2,5.8,12.5
			c12.5,10.8,19.2,26.7,19.2,43.3C314.3,413.5,288.5,439.3,256,439.3z"/>
	</g>
</g>
</svg>
