<?xml version="1.0" encoding="utf-8"?>
<!-- Generator: Adobe Illustrator 18.1.1, SVG Export Plug-In . SVG Version: 6.00 Build 0)  -->
<!DOCTYPE svg PUBLIC "-//W3C//DTD SVG 1.1//EN" "http://www.w3.org/Graphics/SVG/1.1/DTD/svg11.dtd">
<svg version="1.1" id="Capa_1" xmlns="http://www.w3.org/2000/svg" xmlns:xlink="http://www.w3.org/1999/xlink" x="0px" y="0px"
	 viewBox="0 0 514 512" enable-background="new 0 0 514 512" xml:space="preserve">
<g id="Dibujo">
	<path fill="#FFFFFF" d="M403,133.3c-4.2,0-9.2,0.8-14.2,1.7C371.3,75,317.1,33.3,253,33.3S134.7,75,117.2,135
		c-5-0.8-10-1.7-14.2-1.7c-50.8,0-91.7,40.8-91.7,91.7s40.8,91.7,91.7,91.7h94.2l-32.5,49.2c-3.3,5-3.3,11.7-0.8,17.5
		c2.5,5,8.3,9.2,15,9.2H198l-32.5,49.2c-5,7.5-3.3,18.3,5,23.3c2.5,1.7,5.8,2.5,9.2,2.5c5,0,10.8-2.5,14.2-7.5l50-75
		c3.3-5,3.3-11.7,0.8-17.5c-2.5-5-8.3-9.2-15-9.2h-19.2l27.5-41.7h43.3l-15.8,24.2c-3.3,5-3.3,11.7-0.8,17.5c3.3,5,8.3,9.2,15,9.2
		h19.2L283,391.7c-5,7.5-3.3,18.3,5,23.3c2.5,1.7,5.8,2.5,9.2,2.5c5,0,10.8-2.5,14.2-7.5l33.3-50c3.3-5,3.3-11.7,0.8-17.5
		c-2.5-5-8.3-9.2-15-9.2h-19.2l10.8-16.7h82.5c50.8,0,91.7-40.8,91.7-91.7S453.8,133.3,403,133.3z M403,283.3H103
		c-32.5,0-58.3-25.8-58.3-58.3s25.8-58.3,58.3-58.3c2.5,0,5.8,0.8,10,1.7v15c0,9.2,7.5,16.7,16.7,16.7s16.7-7.5,16.7-16.7v-26.7
		c9.2-52.5,53.3-90,106.7-90c53.3,0,97.5,37.5,106.7,90v26.7c0,9.2,7.5,16.7,16.7,16.7s16.7-7.5,16.7-16.7v-15
		c4.2-0.8,7.5-1.7,10-1.7c32.5,0,58.3,25.8,58.3,58.3S435.5,283.3,403,283.3z"/>
</g>
</svg>
